<svg height="480pt" viewBox="0 0 480 480.008" width="480pt" xmlns="http://www.w3.org/2000/svg"><path d="m472.003906 336h-48v-140.800781c.074219-33.453125-14.550781-65.246094-40-86.960938v-100.238281c0-4.417969-3.582031-8-8-8h-48c-4.417968 0-8 3.582031-8 8v100.238281c-25.449218 21.714844-40.074218 53.507813-40 86.960938v140.800781h-64v-56.640625c27.527344-3.972656 47.96875-27.546875 48-55.359375-.003906-11.03125-.789062-22.046875-2.34375-32.96875l-5.734375-40.167969c-.566406-3.9375-3.941406-6.863281-7.921875-6.863281h-80c-3.980468 0-7.355468 2.925781-7.917968 6.863281l-.082032.578125-.078125-.578125c-.566406-3.9375-3.941406-6.863281-7.921875-6.863281h-80c-3.980468 0-7.355468 2.925781-7.917968 6.863281l-5.738282 40.167969c-1.554687 10.921875-2.339844 21.9375-2.34375 32.96875.03125 27.8125 20.472656 51.386719 48 55.359375v56.640625h-96c-4.417968 0-7.99999975 3.582031-7.99999975 8 .03515625 30.914062 25.08593775 55.964844 55.99999975 56h65.894532c-.183594.28125-.414063.503906-.582032.800781-4.328125 7.199219-5.542968 15.851563-3.367187 23.964844 2.171875 8.117187 7.546875 15 14.894531 19.074219l52.398438 29.121094c8.324218 4.613281 17.683593 7.039062 27.203124 7.046874h259.558594c4.417969 0 8-3.582031 8-8v-79.855468c0-4.417969-3.582031-8-8-8h-9.039062c10.890625-10.515625 17.042968-25.011719 17.039062-40.152344 0-4.417969-3.582031-8-8-8zm-136-320h32v16h-32zm-40 192h64v80h-64zm0 96h72c4.417969 0 8-3.582031 8-8v-96c0-4.417969-3.582031-8-8-8h-71.816406c.824219-28.800781 14.285156-55.777344 36.800781-73.753906 1.902344-1.515625 3.011719-3.8125 3.015625-6.246094v-64h32v64c0 2.429688 1.101563 4.730469 3 6.246094 23.433594 18.660156 37.0625 47 37 76.953125v140.800781h-112zm-125.824218-110.703125 4.800781-33.296875h66.128906l4.757813 33.296875c1.429687 10.171875 2.144531 20.429687 2.136718 30.703125 0 22.089844-17.910156 40-40 40s-40-17.910156-40-40c.003906-10.273438.730469-20.53125 2.175782-30.703125zm-10.175782 59.398437c8.652344 14.445313 23.339844 24.238282 40 26.664063v56.640625h-80v-56.640625c16.660156-2.425781 31.347656-12.21875 40-26.664063zm-88-28.695312c.003906-10.273438.730469-20.53125 2.175782-30.703125l4.800781-33.296875h66.128906l4.796875 33.296875c1.417969 10.171875 2.121094 20.433594 2.097656 30.703125 0 22.089844-17.910156 40-40 40s-40-17.910156-40-40zm280 240h-139.558594c-6.796874-.003906-13.480468-1.734375-19.425781-5.03125l-52.40625-29.128906c-3.554687-1.964844-6.160156-5.289063-7.214843-9.210938-1.054688-3.921875-.472657-8.105468 1.613281-11.589844 2.210937-3.601562 5.800781-6.132812 9.9375-7.007812 3.753906-.949219 7.726562-.402344 11.085937 1.519531l48 27.417969c1.210938.683594 2.578125 1.039062 3.96875 1.03125h64c4.417969 0 8-3.582031 8-8s-3.582031-8-8-8h-44c-6.628906 0-12-5.371094-12-12s5.371094-12 12-12h44c1.453125 0 2.875-.394531 4.121094-1.144531 21.792969-12.988281 49.101562-12.339844 70.253906 1.671875l5.601563 3.753906zm-151.199218-53.328125-18.671876-10.671875h18.277344c-.230468 1.320312-.367187 2.660156-.40625 4-.003906 2.25.265625 4.488281.800782 6.671875zm263.199218-10.527344v63.855469h-96v-64zm-40-16.144531h-61.601562l-7.199219-4.800781c-25.609375-16.949219-58.542969-18.183594-85.351563-3.199219h-41.847656c-7.535156.003906-14.75 3.054688-20 8.464844v-.464844h-152c-19-.019531-35.375-13.386719-39.199218-32h446.398437c-3.824219 18.613281-20.195313 31.980469-39.199219 32zm0 0"/><path d="m384.003906 432h16v16h-16zm0 0"/><path d="m312.003906 176h16c.179688-6.949219 2.480469-13.679688 6.601563-19.28125l-13.210938-9.046875c-5.953125 8.261719-9.230469 18.148437-9.390625 28.328125zm0 0"/><path d="m339.5625 129.34375c-3.8125 2.679688-7.355469 5.726562-10.574219 9.097656l11.511719 11.117188c2.445312-2.546875 5.125-4.863282 8-6.917969l-4.496094-6.640625zm0 0"/></svg>