<?xml version="1.0" encoding="iso-8859-1"?>
<!-- Generator: Adobe Illustrator 19.0.0, SVG Export Plug-In . SVG Version: 6.00 Build 0)  -->
<svg version="1.1" id="Capa_1" xmlns="http://www.w3.org/2000/svg" xmlns:xlink="http://www.w3.org/1999/xlink" x="0px" y="0px"
	 viewBox="0 0 512 512" style="enable-background:new 0 0 512 512;" xml:space="preserve">
<g>
	<g>
		<path d="M457.997,477.201c-6.167-4.303-14.614-10.195-30.076-10.195c-15.461,0-23.908,5.893-30.075,10.195
			c-0.594,0.415-1.148,0.801-1.674,1.159l46.771-101.152l-53.498-23.878h40.587l-6.126-31.999c-5.213-27.234-5.213-54.853,0-82.087
			l6.126-31.999H271v-12.541h118.366l-5.418-28.3c-3.76-19.642-3.76-39.56,0-59.201l5.418-28.3H271v-4.609h75.007l-12.079-37.147
			L346.007,0H241v78.904H122.634l5.418,28.3c3.76,19.642,3.76,39.56,0,59.201l-5.418,28.3H241v12.541H81.968l6.126,31.999
			c5.213,27.234,5.213,54.853,0,82.087l-6.126,31.999h40.587l-53.498,23.878l46.774,101.16c-0.529-0.361-1.086-0.749-1.685-1.167
			c-6.167-4.303-14.613-10.196-30.074-10.196s-23.906,5.893-30.073,10.196C49.277,480.496,47.122,482,41.092,482v30
			c15.461,0,23.907-5.893,30.074-10.196c4.722-3.295,6.877-4.799,12.906-4.799c6.03,0,8.185,1.504,12.908,4.799
			c6.167,4.303,14.612,10.196,30.073,10.196s23.907-5.893,30.074-10.196c4.722-3.295,6.877-4.799,12.906-4.799
			c6.03,0,8.185,1.504,12.908,4.799c6.167,4.303,14.613,10.196,30.074,10.196c15.46,0,23.906-5.893,30.073-10.196
			c4.722-3.295,6.877-4.799,12.906-4.799c6.029,0,8.184,1.504,12.906,4.799c6.167,4.303,14.612,10.196,30.073,10.196
			s23.907-5.893,30.074-10.196c4.723-3.295,6.878-4.799,12.908-4.799c6.029,0,8.185,1.504,12.907,4.799
			c6.167,4.303,14.613,10.196,30.074,10.196c15.462,0,23.909-5.893,30.076-10.195c4.724-3.295,6.879-4.799,12.91-4.799
			s8.187,1.504,12.911,4.799C447,506.107,455.446,512,470.908,512v-30C464.876,482,462.721,480.496,457.997,477.201z M271,30h33.707
			l-2.324,7.147l2.324,7.147H271V30z M158.774,164.705c2.801-18.546,2.801-37.255,0-55.801h194.452
			c-2.801,18.546-2.801,37.255,0,55.801H158.774z M241,469.201c-6.622,2.108-11.286,5.353-15.08,8
			c-4.722,3.295-6.877,4.799-12.905,4.799c-6.03,0-8.185-1.504-12.908-4.799c-6.167-4.303-14.613-10.196-30.074-10.196
			c-10.725,0-18.07,2.836-23.625,6.01l-37.362-80.803L241,333.315V469.201z M256,293.768l-66.232,29.562h-71.54v0
			c5.037-28.58,5.037-57.504,0-86.084h275.544c-5.037,28.58-5.037,57.504,0,86.084h-71.54L256,293.768z M365.59,473.021
			c-5.556-3.176-12.904-6.016-23.635-6.016c-15.461,0-23.907,5.893-30.074,10.196c-4.723,3.295-6.878,4.799-12.908,4.799
			c-6.029,0-8.184-1.504-12.906-4.799c-3.791-2.645-8.452-5.887-15.067-7.996v-135.89l131.954,58.897L365.59,473.021z"/>
	</g>
</g>
<g>
</g>
<g>
</g>
<g>
</g>
<g>
</g>
<g>
</g>
<g>
</g>
<g>
</g>
<g>
</g>
<g>
</g>
<g>
</g>
<g>
</g>
<g>
</g>
<g>
</g>
<g>
</g>
<g>
</g>
</svg>
